<svg width="458" height="53" viewBox="0 0 458 53" fill="none" xmlns="http://www.w3.org/2000/svg">
<path d="M0.5 8C0.5 3.85786 3.85786 0.5 8 0.5H450C454.142 0.5 457.5 3.85786 457.5 8V45C457.5 49.1421 454.142 52.5 450 52.5H8.00001C3.85787 52.5 0.5 49.1421 0.5 45V8Z" fill="#F9FAFB" stroke="#E5E7EB"/>
<path d="M378 17C378 11.4772 382.477 7 388 7H441C446.523 7 451 11.4772 451 17V36C451 41.5228 446.523 46 441 46H388C382.477 46 378 41.5228 378 36V17Z" fill="#575445"/>
<path d="M23.352 23.278V26.54H26.908V27.59H23.352V30.95H27.328V32H22.078V22.228H27.328V23.278H23.352ZM38.4817 24.188C39.0791 24.188 39.6111 24.314 40.0777 24.566C40.5444 24.8087 40.9131 25.1773 41.1837 25.672C41.4544 26.1667 41.5897 26.7687 41.5897 27.478V32H40.3297V27.66C40.3297 26.8947 40.1384 26.3113 39.7557 25.91C39.3824 25.4993 38.8737 25.294 38.2297 25.294C37.5671 25.294 37.0397 25.5087 36.6477 25.938C36.2557 26.358 36.0597 26.9693 36.0597 27.772V32H34.7997V27.66C34.7997 26.8947 34.6084 26.3113 34.2257 25.91C33.8524 25.4993 33.3437 25.294 32.6997 25.294C32.0371 25.294 31.5097 25.5087 31.1177 25.938C30.7257 26.358 30.5297 26.9693 30.5297 27.772V32H29.2557V24.328H30.5297V25.434C30.7817 25.0327 31.1177 24.7247 31.5377 24.51C31.9671 24.2953 32.4384 24.188 32.9517 24.188C33.5957 24.188 34.1651 24.3327 34.6597 24.622C35.1544 24.9113 35.5231 25.336 35.7657 25.896C35.9804 25.3547 36.3351 24.9347 36.8297 24.636C37.3244 24.3373 37.8751 24.188 38.4817 24.188ZM43.2036 28.136C43.2036 27.352 43.3622 26.666 43.6796 26.078C43.9969 25.4807 44.4309 25.0187 44.9816 24.692C45.5416 24.3653 46.1622 24.202 46.8436 24.202C47.5156 24.202 48.0989 24.3467 48.5936 24.636C49.0882 24.9253 49.4569 25.2893 49.6996 25.728V24.328H50.9876V32H49.6996V30.572C49.4476 31.02 49.0696 31.3933 48.5656 31.692C48.0709 31.9813 47.4922 32.126 46.8296 32.126C46.1482 32.126 45.5322 31.958 44.9816 31.622C44.4309 31.286 43.9969 30.8147 43.6796 30.208C43.3622 29.6013 43.2036 28.9107 43.2036 28.136ZM49.6996 28.15C49.6996 27.5713 49.5829 27.0673 49.3496 26.638C49.1162 26.2087 48.7989 25.882 48.3976 25.658C48.0056 25.4247 47.5716 25.308 47.0956 25.308C46.6196 25.308 46.1856 25.42 45.7936 25.644C45.4016 25.868 45.0889 26.1947 44.8556 26.624C44.6222 27.0533 44.5056 27.5573 44.5056 28.136C44.5056 28.724 44.6222 29.2373 44.8556 29.676C45.0889 30.1053 45.4016 30.4367 45.7936 30.67C46.1856 30.894 46.6196 31.006 47.0956 31.006C47.5716 31.006 48.0056 30.894 48.3976 30.67C48.7989 30.4367 49.1162 30.1053 49.3496 29.676C49.5829 29.2373 49.6996 28.7287 49.6996 28.15ZM53.7985 23.082C53.5558 23.082 53.3505 22.998 53.1825 22.83C53.0145 22.662 52.9305 22.4567 52.9305 22.214C52.9305 21.9713 53.0145 21.766 53.1825 21.598C53.3505 21.43 53.5558 21.346 53.7985 21.346C54.0318 21.346 54.2278 21.43 54.3865 21.598C54.5545 21.766 54.6385 21.9713 54.6385 22.214C54.6385 22.4567 54.5545 22.662 54.3865 22.83C54.2278 22.998 54.0318 23.082 53.7985 23.082ZM54.4145 24.328V32H53.1405V24.328H54.4145ZM57.8598 21.64V32H56.5858V21.64H57.8598Z" fill="#575445"/>
<path d="M394.172 32.098C393.528 32.098 392.949 31.986 392.436 31.762C391.932 31.5287 391.535 31.2113 391.246 30.81C390.957 30.3993 390.807 29.928 390.798 29.396H392.156C392.203 29.8533 392.389 30.2407 392.716 30.558C393.052 30.866 393.537 31.02 394.172 31.02C394.779 31.02 395.255 30.8707 395.6 30.572C395.955 30.264 396.132 29.872 396.132 29.396C396.132 29.0227 396.029 28.7193 395.824 28.486C395.619 28.2527 395.362 28.0753 395.054 27.954C394.746 27.8327 394.331 27.702 393.808 27.562C393.164 27.394 392.646 27.226 392.254 27.058C391.871 26.89 391.54 26.6287 391.26 26.274C390.989 25.91 390.854 25.4247 390.854 24.818C390.854 24.286 390.989 23.8147 391.26 23.404C391.531 22.9933 391.909 22.676 392.394 22.452C392.889 22.228 393.453 22.116 394.088 22.116C395.003 22.116 395.749 22.3447 396.328 22.802C396.916 23.2593 397.247 23.866 397.322 24.622H395.922C395.875 24.2487 395.679 23.922 395.334 23.642C394.989 23.3527 394.531 23.208 393.962 23.208C393.43 23.208 392.996 23.348 392.66 23.628C392.324 23.8987 392.156 24.2813 392.156 24.776C392.156 25.1307 392.254 25.42 392.45 25.644C392.655 25.868 392.903 26.0407 393.192 26.162C393.491 26.274 393.906 26.4047 394.438 26.554C395.082 26.7313 395.6 26.9087 395.992 27.086C396.384 27.254 396.72 27.52 397 27.884C397.28 28.2387 397.42 28.724 397.42 29.34C397.42 29.816 397.294 30.264 397.042 30.684C396.79 31.104 396.417 31.4447 395.922 31.706C395.427 31.9673 394.844 32.098 394.172 32.098ZM406.099 24.328V32H404.825V30.866C404.582 31.258 404.241 31.566 403.803 31.79C403.373 32.0047 402.897 32.112 402.375 32.112C401.777 32.112 401.241 31.9907 400.765 31.748C400.289 31.496 399.911 31.1227 399.631 30.628C399.36 30.1333 399.225 29.5313 399.225 28.822V24.328H400.485V28.654C400.485 29.41 400.676 29.9933 401.059 30.404C401.441 30.8053 401.964 31.006 402.627 31.006C403.308 31.006 403.845 30.796 404.237 30.376C404.629 29.956 404.825 29.3447 404.825 28.542V24.328H406.099ZM409.524 25.756C409.785 25.2987 410.168 24.9253 410.672 24.636C411.176 24.3467 411.75 24.202 412.394 24.202C413.085 24.202 413.705 24.3653 414.256 24.692C414.807 25.0187 415.241 25.4807 415.558 26.078C415.875 26.666 416.034 27.352 416.034 28.136C416.034 28.9107 415.875 29.6013 415.558 30.208C415.241 30.8147 414.802 31.286 414.242 31.622C413.691 31.958 413.075 32.126 412.394 32.126C411.731 32.126 411.148 31.9813 410.644 31.692C410.149 31.4027 409.776 31.034 409.524 30.586V32H408.25V21.64H409.524V25.756ZM414.732 28.136C414.732 27.5573 414.615 27.0533 414.382 26.624C414.149 26.1947 413.831 25.868 413.43 25.644C413.038 25.42 412.604 25.308 412.128 25.308C411.661 25.308 411.227 25.4247 410.826 25.658C410.434 25.882 410.117 26.2133 409.874 26.652C409.641 27.0813 409.524 27.5807 409.524 28.15C409.524 28.7287 409.641 29.2373 409.874 29.676C410.117 30.1053 410.434 30.4367 410.826 30.67C411.227 30.894 411.661 31.006 412.128 31.006C412.604 31.006 413.038 30.894 413.43 30.67C413.831 30.4367 414.149 30.1053 414.382 29.676C414.615 29.2373 414.732 28.724 414.732 28.136ZM426.937 24.188C427.534 24.188 428.066 24.314 428.533 24.566C428.999 24.8087 429.368 25.1773 429.639 25.672C429.909 26.1667 430.045 26.7687 430.045 27.478V32H428.785V27.66C428.785 26.8947 428.593 26.3113 428.211 25.91C427.837 25.4993 427.329 25.294 426.685 25.294C426.022 25.294 425.495 25.5087 425.103 25.938C424.711 26.358 424.515 26.9693 424.515 27.772V32H423.255V27.66C423.255 26.8947 423.063 26.3113 422.681 25.91C422.307 25.4993 421.799 25.294 421.155 25.294C420.492 25.294 419.965 25.5087 419.573 25.938C419.181 26.358 418.985 26.9693 418.985 27.772V32H417.711V24.328H418.985V25.434C419.237 25.0327 419.573 24.7247 419.993 24.51C420.422 24.2953 420.893 24.188 421.407 24.188C422.051 24.188 422.62 24.3327 423.115 24.622C423.609 24.9113 423.978 25.336 424.221 25.896C424.435 25.3547 424.79 24.9347 425.285 24.636C425.779 24.3373 426.33 24.188 426.937 24.188ZM432.793 23.082C432.55 23.082 432.345 22.998 432.177 22.83C432.009 22.662 431.925 22.4567 431.925 22.214C431.925 21.9713 432.009 21.766 432.177 21.598C432.345 21.43 432.55 21.346 432.793 21.346C433.026 21.346 433.222 21.43 433.381 21.598C433.549 21.766 433.633 21.9713 433.633 22.214C433.633 22.4567 433.549 22.662 433.381 22.83C433.222 22.998 433.026 23.082 432.793 23.082ZM433.409 24.328V32H432.135V24.328H433.409ZM437.134 25.378V29.9C437.134 30.2733 437.213 30.5393 437.372 30.698C437.531 30.8473 437.806 30.922 438.198 30.922H439.136V32H437.988C437.279 32 436.747 31.8367 436.392 31.51C436.037 31.1833 435.86 30.6467 435.86 29.9V25.378H434.866V24.328H435.86V22.396H437.134V24.328H439.136V25.378H437.134Z" fill="white"/>
</svg>
